<svg width="18" height="16" viewBox="0 0 18 16" fill="none" xmlns="http://www.w3.org/2000/svg">
<path fill="#5B616E" d="M16.89 7.47997C16.31 6.19997 15.53 5.09997 14.64 4.21997L13.34 6.46997C13.72 6.91997 14.06 7.42997 14.36 7.99997C13.4 9.82997 11.99 11.07 10.41 11.53L8.84998 14.23C8.89998 14.23 8.94998 14.24 8.99998 14.24C12.25 14.24 15.28 12.04 16.89 8.50997C17.04 8.18997 17.04 7.80997 16.89 7.47997Z"/>
<path fill="#5B616E" d="M13.24 0L11.87 2.37C10.96 1.98 9.99 1.75 9 1.75C5.75 1.75 2.72 3.95 1.11 7.48C0.959998 7.81 0.959998 8.19 1.11 8.52C2.12 10.74 3.7 12.41 5.53 13.36L4.57 15.02L6.27 16L14.94 0.98L13.24 0ZM3.64 8C4.89 5.64 6.86 4.25 9 4.25C9.56 4.25 10.1 4.36 10.62 4.54L9.7 6.14C9.48 6.06 9.25 6 9 6C7.9 6 7 6.9 7 8C7 8.62 7.29 9.17 7.74 9.54L6.77 11.22C5.53 10.61 4.44 9.51 3.64 8Z"/>
</svg>
