<svg width="18" height="14" viewBox="0 0 18 14" fill="none" xmlns="http://www.w3.org/2000/svg">
<path fill="#5B616E" d="M9 13.25C5.75 13.25 2.72 11.05 1.11 7.52C0.959998 7.19 0.959998 6.81 1.11 6.48C2.72 2.95 5.75 0.75 9 0.75C12.25 0.75 15.28 2.95 16.89 6.48C17.04 6.81 17.04 7.19 16.89 7.52C15.28 11.05 12.25 13.25 9 13.25ZM3.64 7C4.88 9.36 6.86 10.75 9 10.75C11.14 10.75 13.11 9.36 14.36 7C13.11 4.64 11.14 3.25 9 3.25C6.86 3.25 4.89 4.64 3.64 7Z"/>
<path fill="#5B616E" d="M9 9C10.1046 9 11 8.10457 11 7C11 5.89543 10.1046 5 9 5C7.89543 5 7 5.89543 7 7C7 8.10457 7.89543 9 9 9Z"/>
</svg>
